<svg xmlns="http://www.w3.org/2000/svg" width="166" height="298" viewBox="0 0 166 298">
  <defs>
    <style>
      .cls-1 {
        fill: #1b998b;
      }

      .cls-2 {
        fill: rgba(0,0,0,0.6);
      }

      .cls-3 {
        font-size: 48px;
        font-family: Andada Pro;
        font-weight: 600;
      }
    </style>
  </defs>
  <g id="Group_15" data-name="Group 15" transform="translate(-1204 -4030)">
    <ellipse id="Ellipse_26" data-name="Ellipse 26" class="cls-1" cx="82.5" cy="74" rx="82.5" ry="74" transform="translate(1204 4030)"/>
    <path id="film" class="cls-2" d="M99.566,64H97.934v4.7a2.66,2.66,0,0,1-2.448,2.817H87.324A2.66,2.66,0,0,1,84.876,68.7V64H19.587v4.7a2.66,2.66,0,0,1-2.448,2.817H8.977A2.66,2.66,0,0,1,6.529,68.7V64H4.9C2.183,64,0,66.512,0,69.634v78.879c0,3.122,2.183,5.634,4.9,5.634H6.529v-4.7a2.66,2.66,0,0,1,2.448-2.817h8.161a2.66,2.66,0,0,1,2.448,2.817v4.7H84.876v-4.7a2.66,2.66,0,0,1,2.448-2.817h8.161a2.66,2.66,0,0,1,2.448,2.817v4.7h1.632c2.714,0,4.9-2.512,4.9-5.634V69.634C104.463,66.512,102.28,64,99.566,64ZM19.587,136.306a2.66,2.66,0,0,1-2.448,2.817H8.977a2.66,2.66,0,0,1-2.448-2.817v-9.39A2.66,2.66,0,0,1,8.977,124.1h8.161a2.66,2.66,0,0,1,2.448,2.817Zm0-22.537a2.66,2.66,0,0,1-2.448,2.817H8.977a2.66,2.66,0,0,1-2.448-2.817v-9.39a2.66,2.66,0,0,1,2.448-2.817h8.161a2.66,2.66,0,0,1,2.448,2.817Zm0-22.537a2.66,2.66,0,0,1-2.448,2.817H8.977a2.66,2.66,0,0,1-2.448-2.817v-9.39a2.66,2.66,0,0,1,2.448-2.817h8.161a2.66,2.66,0,0,1,2.448,2.817Zm55.5,48.83a2.66,2.66,0,0,1-2.448,2.817H31.829a2.66,2.66,0,0,1-2.448-2.817V117.525a2.66,2.66,0,0,1,2.448-2.817H72.634a2.66,2.66,0,0,1,2.448,2.817Zm0-39.44a2.66,2.66,0,0,1-2.448,2.817H31.829a2.66,2.66,0,0,1-2.448-2.817V78.086a2.66,2.66,0,0,1,2.448-2.817H72.634a2.66,2.66,0,0,1,2.448,2.817Zm22.851,35.684a2.66,2.66,0,0,1-2.448,2.817H87.324a2.66,2.66,0,0,1-2.448-2.817v-9.39a2.66,2.66,0,0,1,2.448-2.817h8.161a2.66,2.66,0,0,1,2.448,2.817Zm0-22.537a2.66,2.66,0,0,1-2.448,2.817H87.324a2.66,2.66,0,0,1-2.448-2.817v-9.39a2.66,2.66,0,0,1,2.448-2.817h8.161a2.66,2.66,0,0,1,2.448,2.817Zm0-22.537a2.66,2.66,0,0,1-2.448,2.817H87.324a2.66,2.66,0,0,1-2.448-2.817v-9.39a2.66,2.66,0,0,1,2.448-2.817h8.161a2.66,2.66,0,0,1,2.448,2.817Z" transform="translate(1234.269 3994.926)"/>
    <text id="Movies_" data-name="Movies
" class="cls-3" transform="translate(1290 4261)"><tspan x="-79.488" y="0">movies</tspan><tspan x="0" y="56"></tspan></text>
  </g>
</svg>
