<svg xmlns="http://www.w3.org/2000/svg" width="196" height="354" viewBox="0 0 196 354">
  <defs>
    <style>
      .cls-1 {
        fill: #1b998b;
      }

      .cls-2 {
        fill: rgba(0,0,0,0.6);
      }

      .cls-3 {
        font-size: 48px;
        font-family: Andada Pro;
        font-weight: 600;
      }
    </style>
  </defs>
  <g id="Group_13" data-name="Group 13" transform="translate(-1682 -4030)">
    <ellipse id="Ellipse_28" data-name="Ellipse 28" class="cls-1" cx="82.5" cy="74" rx="82.5" ry="74" transform="translate(1688 4030)"/>
    <path id="bath" class="cls-2" d="M98.532,70.394H16.153V45.712c0-3.024,2.9-5.485,6.461-5.485a6.793,6.793,0,0,1,5.455,2.55A10.321,10.321,0,0,0,29.449,57.01a1.837,1.837,0,0,0,.1,2.816l2.284,1.939a2.738,2.738,0,0,0,3.427,0L54.447,45.477a1.845,1.845,0,0,0,0-2.909l-2.284-1.939a2.743,2.743,0,0,0-3.317-.084,15.521,15.521,0,0,0-12.958-2.634A17.113,17.113,0,0,0,22.614,32C13.707,32,6.461,38.151,6.461,45.712V70.394H4.846C2.17,70.394,0,72.236,0,74.508V77.25c0,2.272,2.17,4.114,4.846,4.114H6.461v5.485a15.457,15.457,0,0,0,6.461,12.263v5.562c0,2.272,2.17,4.114,4.846,4.114H21c2.676,0,4.846-1.842,4.846-4.114V103.3H77.533v1.371c0,2.272,2.17,4.114,4.846,4.114H85.61c2.676,0,4.846-1.842,4.846-4.114V99.112a15.457,15.457,0,0,0,6.461-12.263V81.364h1.615c2.676,0,4.846-1.842,4.846-4.114V74.508C103.378,72.236,101.208,70.394,98.532,70.394Z" transform="translate(1718.811 4034.439)"/>
    <text id="luxury_toilitries_" data-name="luxury
toilitries
" class="cls-3" transform="translate(1780 4261)"><tspan x="-76.032" y="0">luxury</tspan><tspan x="-97.728" y="56">toilitries</tspan><tspan x="0" y="112"></tspan></text>
  </g>
</svg>
