<svg xmlns="http://www.w3.org/2000/svg" width="165" height="242" viewBox="0 0 165 242">
  <g id="Group_20" data-name="Group 20" transform="translate(-44 -4030)">
    <ellipse id="Ellipse_21" data-name="Ellipse 21" cx="82.5" cy="74" rx="82.5" ry="74" transform="translate(44 4030)" fill="#1b998b"/>
    <path id="wifi" d="M120.967,55.412a88.586,88.586,0,0,0-120,0A3.028,3.028,0,0,0,.9,59.79l6.524,6.472a3.094,3.094,0,0,0,4.268.072,73.1,73.1,0,0,1,98.549,0,3.1,3.1,0,0,0,4.268-.072l6.524-6.472a3.03,3.03,0,0,0-.069-4.378Zm-60,37.556a12.194,12.194,0,1,0,12.194,12.194A12.193,12.193,0,0,0,60.969,92.968ZM99.582,77.042a58.491,58.491,0,0,0-77.227,0,3.012,3.012,0,0,0-.109,4.411l6.562,6.476a3.11,3.11,0,0,0,4.2.152,42.911,42.911,0,0,1,55.917,0,3.108,3.108,0,0,0,4.2-.152l6.562-6.476A3.012,3.012,0,0,0,99.582,77.042Z" transform="translate(65.531 4033.688)" fill="rgba(0,0,0,0.6)"/>
    <text id="Wifi-2" data-name="Wifi" transform="translate(82 4261)" font-size="48" font-family="Andada Pro" font-weight="600"><tspan x="0" y="0">wifi</tspan></text>
  </g>
</svg>
